<svg xmlns="http://www.w3.org/2000/svg" data-name="Layer 1" viewBox="0 0 100 125" x="0px" y="0px">
<title>Artboard 7</title>
<path style="fill:#D8D8D8;" d="M10.76,69.44a31.76,31.76,0,0,0,7.87,4.66c-1.77,4.59-2.52,14.25-1.19,17.84a4.79,4.79,0,0,0,1.45.25h0a4,4,0,0,0,1.28,0c1.84-3.07,2.88-11.7,2.28-16.76a47.06,47.06,0,0,0,6.82,1.46A53,53,0,0,0,35,77.4c1,0,2,0,3,0l1.52-.07.77-.06,1-.13a9.89,9.89,0,0,0,7.89-8.21,9.34,9.34,0,0,0,.1-2.07,8.26,8.26,0,0,0-.11-1l-.1-.51h0a5.12,5.12,0,0,1,.08-.91,12.39,12.39,0,0,1,.26-1.23,12.22,12.22,0,0,1,.4-1.24l.26-.72.06-.18.13-.43a4.85,4.85,0,0,0,.14-.91,4.7,4.7,0,0,0-1.21-3.39,4.6,4.6,0,0,0-1.53-1.11,3.75,3.75,0,0,0-.44-.17l-.3-.09-.32-.1a13.51,13.51,0,0,1-2.41-1,7.76,7.76,0,0,1-3.35-3.05,6.18,6.18,0,0,1-.44-1l0-.16h.06c.55.07,1.11.1,1.66.14,1.1.06,2.2.08,3.29.05s2.17-.11,3.25-.23a29.89,29.89,0,0,0,3.29-.55,2.62,2.62,0,0,0,2-2.46l.23-7.08a15.39,15.39,0,0,0,4.32-2,12.42,12.42,0,0,0,1.39-1.1,7,7,0,0,0,.73-.76,6,6,0,0,0,.63-.92,6.47,6.47,0,0,0,.09-6.2A6,6,0,0,0,60,26.92a10.77,10.77,0,0,0-1.32-1c-.41-.25-.67-.46-1-.68a16.19,16.19,0,0,1-3.26-2.93,15.78,15.78,0,0,1-3.41-7,16.66,16.66,0,0,1-.37-3.43c0-1.22-.07-2.38-.19-3.45-.05-.49-.73-.81-1.48-.72s-1.18.43-1.19.83c0,1-.11,2.06-.23,3.21a18.36,18.36,0,0,0,0,4.12,18.66,18.66,0,0,0,3.59,9A19.77,19.77,0,0,0,55,28.82c.36.28.78.61,1.1.83a6.38,6.38,0,0,1,.76.62,1.29,1.29,0,0,1,.31.42,1.93,1.93,0,0,1,.14.56,1.74,1.74,0,0,1-.27,1.12,1.28,1.28,0,0,1-.17.22,2.34,2.34,0,0,1-.26.24,7.69,7.69,0,0,1-.87.63A12.19,12.19,0,0,1,51.23,35a2.5,2.5,0,0,0-2.09,2.32v.07l-.38,6.8L48,44.3c-.92.09-1.86.14-2.79.16s-1.88,0-2.81-.08c-.47,0-.94-.07-1.4-.14l-.8-.09a5,5,0,0,0-5.5,5.11,5,5,0,0,0,.08.83c0,.24.08.35.12.53s.18.65.28,1A11.6,11.6,0,0,0,36,53.45a13.15,13.15,0,0,0,5.64,5.27A18.63,18.63,0,0,0,44.74,60l-.06.17a17.33,17.33,0,0,0-.87,3.48,9.61,9.61,0,0,0-.09,2.14l0,.17v0c-.06-.29.08.45.07.37v0l0,.12.05.24a3.2,3.2,0,0,1,.06.48,4.08,4.08,0,0,1,0,1,4.69,4.69,0,0,1-3.62,4l-.47.08-.67.07-1.36.1c-.9.06-1.81.08-2.7.09a52.11,52.11,0,0,1-5.26-.24,42,42,0,0,1-9.49-1.93c-5.69-1.93-10.12-5.11-12.3-8.16-.24-.34-1-.32-1.66.06s-.91.94-.69,1.36A19.54,19.54,0,0,0,10.76,69.44ZM45.51,60.2h0l.06,0Zm-.53-1v0Z"/>
<path style="fill:#D8D8D8;" d="M65.47,50.15a5.34,5.34,0,0,0-1.33.61,6.28,6.28,0,0,0-1.09.68c-.12.78-.09,1.71-.15,2.7a14.59,14.59,0,0,1-1.53,6c-.42.9-.9,1.71-1.17,2.46a7.34,7.34,0,0,0,.71,1.26,4.29,4.29,0,0,0,.74,1,6,6,0,0,0,3.43-1.69,9.58,9.58,0,0,0,2.56-9.84A6,6,0,0,0,65.47,50.15Z"/>
<path style="fill:#D8D8D8;" d="M72.38,67.42c-1.14,2-2.36,3.64-3.13,4.88A3.45,3.45,0,0,0,70,73.52c.43.52.82.89.91.85a15.07,15.07,0,0,0,5.34-4.18,21.28,21.28,0,0,0,4.56-17.62,15.12,15.12,0,0,0-2.64-6.26,3,3,0,0,0-1.42.39,3,3,0,0,0-1.12.64c.07,1.45.37,3.46.39,5.77a29,29,0,0,1-.84,7.41A29,29,0,0,1,72.38,67.42Z"/>
<path style="fill:#D8D8D8;" d="M88.24,43.36a79.4,79.4,0,0,1,1,8.83A42.29,42.29,0,0,1,88,63.81a42.33,42.33,0,0,1-4.54,10.78,80.17,80.17,0,0,1-5.1,7.28c-.09.12.25.7.75,1.27s.87.84,1,.76a25.91,25.91,0,0,0,7.3-6.6A33.7,33.7,0,0,0,94,51.72a26,26,0,0,0-3.18-9.32c-.08-.14-.74,0-1.46.26S88.22,43.22,88.24,43.36Z"/>
</svg>